<svg version="1.1" xmlns="http://www.w3.org/2000/svg" xmlns:xlink="http://www.w3.org/1999/xlink" width="1035" height="563"><defs/><g><g transform="translate(-54,-158) scale(1,1)"><rect fill="#C0C0C0" stroke="none" x="169" y="183" width="198" height="208" opacity="0.2"/></g><g transform="translate(-54,-158) scale(1,1)"><rect fill="#ffffff" stroke="none" x="162" y="176" width="198" height="208"/></g><g transform="translate(-54,-158) scale(1,1)"><path fill="none" stroke="#000000" d="M 162 176 L 360 176 L 360 384 L 162 384 L 162 176 Z Z" stroke-miterlimit="10"/></g><g transform="translate(-54,-158) scale(1,1)"><rect fill="#ffffff" stroke="none" x="152" y="183" width="20" height="10"/></g><g transform="translate(-54,-158) scale(1,1)"><path fill="none" stroke="#000000" d="M 152 183 L 172 183 L 172 193 L 152 193 L 152 183 Z Z" stroke-miterlimit="10"/></g><g transform="translate(-54,-158) scale(1,1)"><rect fill="#ffffff" stroke="none" x="152" y="203" width="20" height="10"/></g><g transform="translate(-54,-158) scale(1,1)"><path fill="none" stroke="#000000" d="M 152 203 L 172 203 L 172 213 L 152 213 L 152 203 Z Z" stroke-miterlimit="10"/></g><g transform="translate(-54,-158) scale(1,1)"><g><path fill="none" stroke="none"/><text fill="#000000" stroke="none" font-family="Arial" font-size="13px" font-style="normal" font-weight="normal" text-decoration="none" x="246.484130859375" y="193.5">«C++»</text></g></g><g transform="translate(-54,-158) scale(1,1)"><g><path fill="none" stroke="none"/><text fill="#000000" stroke="none" font-family="Arial" font-size="13px" font-style="normal" font-weight="bold" text-decoration="none" x="230.602294921875" y="208.5">Charm Core</text></g></g><g transform="translate(-54,-158) scale(1,1)"><path fill="#C0C0C0" stroke="none" d="M 433.160400390625 330.5 C 433.160400390625 319.7304464 441.890846790625 311 452.660400390625 311 C 463.429953990625 311 472.160400390625 319.7304464 472.160400390625 330.5 C 472.160400390625 341.2695536 463.429953990625 350 452.660400390625 350 C 441.890846790625 350 433.160400390625 341.2695536 433.160400390625 330.5 Z" opacity="0.2"/></g><g transform="translate(-54,-158) scale(1,1)"><path fill="none" stroke="#000000" d="M 457.78172076783096 308.27323476749905 A 19.5 19.5 0 0 1 432.21827923216904 337.72676523250095" stroke-miterlimit="10"/></g><g transform="translate(-54,-158) scale(1,1)"><path fill="none" stroke="#000000" d="M 448.8242646351946 303.878676824027 A 19.5 19.5 0 0 1 441.17573536480546 342.121323175973" stroke-miterlimit="10"/></g><g transform="translate(-54,-158) scale(1,1)"><path fill="#ffffff" stroke="none" d="M 429.160400390625 323.5 C 429.160400390625 314.3873008 436.547701190625 307 445.660400390625 307 C 454.773099590625 307 462.160400390625 314.3873008 462.160400390625 323.5 C 462.160400390625 332.6126992 454.773099590625 340 445.660400390625 340 C 436.547701190625 340 429.160400390625 332.6126992 429.160400390625 323.5 Z"/></g><g transform="translate(-54,-158) scale(1,1)"><path fill="none" stroke="#000000" d="M 429.160400390625 323.5 C 429.160400390625 314.3873008 436.547701190625 307 445.660400390625 307 C 454.773099590625 307 462.160400390625 314.3873008 462.160400390625 323.5 C 462.160400390625 332.6126992 454.773099590625 340 445.660400390625 340 C 436.547701190625 340 429.160400390625 332.6126992 429.160400390625 323.5 Z" stroke-miterlimit="10"/></g><g transform="translate(-54,-158) scale(1,1)"><g><path fill="none" stroke="none"/><text fill="#000000" stroke="none" font-family="Arial" font-size="13px" font-style="normal" font-weight="bold" text-decoration="none" x="407.72998046875" y="362.5">[C] Converse</text></g></g><g transform="translate(-54,-158) scale(1,1)"><path fill="none" stroke="#000000" d="M 361 311 L 426.160400390625 321.95335557725696" stroke-miterlimit="10"/></g><g transform="translate(-54,-158) scale(1,1)"><rect fill="#C0C0C0" stroke="none" x="657" y="175" width="429" height="543" opacity="0.2"/></g><g transform="translate(-54,-158) scale(1,1)"><rect fill="#ffffff" stroke="none" x="650" y="168" width="429" height="543"/></g><g transform="translate(-54,-158) scale(1,1)"><path fill="none" stroke="#000000" d="M 650 168 L 1079 168 L 1079 711 L 650 711 L 650 168 Z Z" stroke-miterlimit="10"/></g><g transform="translate(-54,-158) scale(1,1)"><rect fill="#ffffff" stroke="none" x="640" y="175" width="20" height="10"/></g><g transform="translate(-54,-158) scale(1,1)"><path fill="none" stroke="#000000" d="M 640 175 L 660 175 L 660 185 L 640 185 L 640 175 Z Z" stroke-miterlimit="10"/></g><g transform="translate(-54,-158) scale(1,1)"><rect fill="#ffffff" stroke="none" x="640" y="195" width="20" height="10"/></g><g transform="translate(-54,-158) scale(1,1)"><path fill="none" stroke="#000000" d="M 640 195 L 660 195 L 660 205 L 640 205 L 640 195 Z Z" stroke-miterlimit="10"/></g><g transform="translate(-54,-158) scale(1,1)"><g><path fill="none" stroke="none"/><text fill="#000000" stroke="none" font-family="Arial" font-size="13px" font-style="normal" font-weight="bold" text-decoration="none" x="863" y="187.5">UI</text></g></g><g transform="translate(-54,-158) scale(1,1)"><rect fill="#C0C0C0" stroke="none" x="708" y="231" width="326" height="199" opacity="0.2"/></g><g transform="translate(-54,-158) scale(1,1)"><rect fill="#ffffff" stroke="none" x="701" y="224" width="326" height="199"/></g><g transform="translate(-54,-158) scale(1,1)"><path fill="none" stroke="#000000" d="M 701 224 L 1027 224 L 1027 423 L 701 423 L 701 224 Z Z" stroke-miterlimit="10"/></g><g transform="translate(-54,-158) scale(1,1)"><rect fill="#ffffff" stroke="none" x="691" y="231" width="20" height="10"/></g><g transform="translate(-54,-158) scale(1,1)"><path fill="none" stroke="#000000" d="M 691 231 L 711 231 L 711 241 L 691 241 L 691 231 Z Z" stroke-miterlimit="10"/></g><g transform="translate(-54,-158) scale(1,1)"><rect fill="#ffffff" stroke="none" x="691" y="251" width="20" height="10"/></g><g transform="translate(-54,-158) scale(1,1)"><path fill="none" stroke="#000000" d="M 691 251 L 711 251 L 711 261 L 691 261 L 691 251 Z Z" stroke-miterlimit="10"/></g><g transform="translate(-54,-158) scale(1,1)"><g><path fill="none" stroke="none"/><text fill="#000000" stroke="none" font-family="Arial" font-size="13px" font-style="normal" font-weight="normal" text-decoration="none" x="853.4609375" y="241.5">«C#»</text></g></g><g transform="translate(-54,-158) scale(1,1)"><g><path fill="none" stroke="none"/><text fill="#000000" stroke="none" font-family="Arial" font-size="13px" font-style="normal" font-weight="bold" text-decoration="none" x="787.7119140625" y="256.5">Design &amp; Simulation Control</text></g></g><g transform="translate(-54,-158) scale(1,1)"><rect fill="#C0C0C0" stroke="none" x="713" y="511" width="326" height="183" opacity="0.2"/></g><g transform="translate(-54,-158) scale(1,1)"><rect fill="#ffffff" stroke="none" x="706" y="504" width="326" height="183"/></g><g transform="translate(-54,-158) scale(1,1)"><path fill="none" stroke="#000000" d="M 706 504 L 1032 504 L 1032 687 L 706 687 L 706 504 Z Z" stroke-miterlimit="10"/></g><g transform="translate(-54,-158) scale(1,1)"><rect fill="#ffffff" stroke="none" x="696" y="511" width="20" height="10"/></g><g transform="translate(-54,-158) scale(1,1)"><path fill="none" stroke="#000000" d="M 696 511 L 716 511 L 716 521 L 696 521 L 696 511 Z Z" stroke-miterlimit="10"/></g><g transform="translate(-54,-158) scale(1,1)"><rect fill="#ffffff" stroke="none" x="696" y="531" width="20" height="10"/></g><g transform="translate(-54,-158) scale(1,1)"><path fill="none" stroke="#000000" d="M 696 531 L 716 531 L 716 541 L 696 541 L 696 531 Z Z" stroke-miterlimit="10"/></g><g transform="translate(-54,-158) scale(1,1)"><g><path fill="none" stroke="none"/><text fill="#000000" stroke="none" font-family="Arial" font-size="13px" font-style="normal" font-weight="normal" text-decoration="none" x="854.484130859375" y="521.5">«C++»</text></g></g><g transform="translate(-54,-158) scale(1,1)"><g><path fill="none" stroke="none"/><text fill="#000000" stroke="none" font-family="Arial" font-size="13px" font-style="normal" font-weight="bold" text-decoration="none" x="837.50732421875" y="536.5">Vizualisation</text></g></g><g transform="translate(-54,-158) scale(1,1)"><path fill="none" stroke="#000000" d="M 715 503 L 465.160400390625 340.49770599941036" stroke-miterlimit="10"/></g><g transform="translate(-54,-158) scale(1,1)"><path fill="none" stroke="#000000" d="M 690 328 L 465.160400390625 327.032080078125" stroke-miterlimit="10"/></g><g transform="translate(-54,-158) scale(1,1)"><rect fill="#C0C0C0" stroke="none" x="241" y="279" width="101" height="87" opacity="0.2"/></g><g transform="translate(-54,-158) scale(1,1)"><rect fill="#ffffff" stroke="none" x="234" y="272" width="101" height="87"/></g><g transform="translate(-54,-158) scale(1,1)"><path fill="none" stroke="#000000" d="M 234 272 L 335 272 L 335 359 L 234 359 L 234 272 Z Z" stroke-miterlimit="10"/></g><g transform="translate(-54,-158) scale(1,1)"><rect fill="#ffffff" stroke="none" x="224" y="279" width="20" height="10"/></g><g transform="translate(-54,-158) scale(1,1)"><path fill="none" stroke="#000000" d="M 224 279 L 244 279 L 244 289 L 224 289 L 224 279 Z Z" stroke-miterlimit="10"/></g><g transform="translate(-54,-158) scale(1,1)"><rect fill="#ffffff" stroke="none" x="224" y="299" width="20" height="10"/></g><g transform="translate(-54,-158) scale(1,1)"><path fill="none" stroke="#000000" d="M 224 299 L 244 299 L 244 309 L 224 309 L 224 299 Z Z" stroke-miterlimit="10"/></g><g transform="translate(-54,-158) scale(1,1)"><g><path fill="none" stroke="none"/><text fill="#000000" stroke="none" font-family="Arial" font-size="13px" font-style="normal" font-weight="bold" text-decoration="none" x="272.5263671875" y="291.5">World</text></g></g><g transform="translate(-54,-158) scale(1,1)"><path fill="#C0C0C0" stroke="none" d="M 262.7099609375 458.5 C 262.7099609375 447.7304464 271.4404073375 439 282.2099609375 439 C 292.9795145375 439 301.7099609375 447.7304464 301.7099609375 458.5 C 301.7099609375 469.2695536 292.9795145375 478 282.2099609375 478 C 271.4404073375 478 262.7099609375 469.2695536 262.7099609375 458.5 Z" opacity="0.2"/></g><g transform="translate(-54,-158) scale(1,1)"><path fill="none" stroke="#000000" d="M 292.5916173218951 442.5866178025719 A 19.5 19.5 0 0 1 257.4083826781049 459.4133821974281" stroke-miterlimit="10"/></g><g transform="translate(-54,-158) scale(1,1)"><path fill="#ffffff" stroke="none" d="M 258.7099609375 451.5 C 258.7099609375 442.3873008 266.0972617375 435 275.2099609375 435 C 284.3226601375 435 291.7099609375 442.3873008 291.7099609375 451.5 C 291.7099609375 460.6126992 284.3226601375 468 275.2099609375 468 C 266.0972617375 468 258.7099609375 460.6126992 258.7099609375 451.5 Z"/></g><g transform="translate(-54,-158) scale(1,1)"><path fill="none" stroke="#000000" d="M 258.7099609375 451.5 C 258.7099609375 442.3873008 266.0972617375 435 275.2099609375 435 C 284.3226601375 435 291.7099609375 442.3873008 291.7099609375 451.5 C 291.7099609375 460.6126992 284.3226601375 468 275.2099609375 468 C 266.0972617375 468 258.7099609375 460.6126992 258.7099609375 451.5 Z" stroke-miterlimit="10"/></g><g transform="translate(-54,-158) scale(1,1)"><g><path fill="none" stroke="none"/><text fill="#000000" stroke="none" font-family="Arial" font-size="13px" font-style="normal" font-weight="bold" text-decoration="none" x="264.37451171875" y="490.5">IPC</text></g></g><g transform="translate(-54,-158) scale(1,1)"><path fill="none" stroke="#000000" d="M 278 360 L 275.95 432" stroke-miterlimit="10"/></g><g transform="translate(-54,-158) scale(1,1)"><rect fill="#C0C0C0" stroke="none" x="297" y="567" width="165" height="88" opacity="0.2"/></g><g transform="translate(-54,-158) scale(1,1)"><rect fill="#ffffff" stroke="none" x="290" y="560" width="165" height="88"/></g><g transform="translate(-54,-158) scale(1,1)"><path fill="none" stroke="#000000" d="M 290 560 L 455 560 L 455 648 L 290 648 L 290 560 Z Z" stroke-miterlimit="10"/></g><g transform="translate(-54,-158) scale(1,1)"><rect fill="#ffffff" stroke="none" x="280" y="567" width="20" height="10"/></g><g transform="translate(-54,-158) scale(1,1)"><path fill="none" stroke="#000000" d="M 280 567 L 300 567 L 300 577 L 280 577 L 280 567 Z Z" stroke-miterlimit="10"/></g><g transform="translate(-54,-158) scale(1,1)"><rect fill="#ffffff" stroke="none" x="280" y="587" width="20" height="10"/></g><g transform="translate(-54,-158) scale(1,1)"><path fill="none" stroke="#000000" d="M 280 587 L 300 587 L 300 597 L 280 597 L 280 587 Z Z" stroke-miterlimit="10"/></g><g transform="translate(-54,-158) scale(1,1)"><g><path fill="none" stroke="none"/><text fill="#000000" stroke="none" font-family="Arial" font-size="13px" font-style="normal" font-weight="normal" text-decoration="none" x="361.9609375" y="577.5">«C#»</text></g></g><g transform="translate(-54,-158) scale(1,1)"><g><path fill="none" stroke="none"/><text fill="#000000" stroke="none" font-family="Arial" font-size="13px" font-style="normal" font-weight="bold" text-decoration="none" x="349.69091796875" y="592.5">ToyWorld</text></g></g><g transform="translate(-54,-158) scale(1,1)"><path fill="none" stroke="#000000" d="M 337 559 L 284.5652173913044 471" stroke-miterlimit="10"/></g><g transform="translate(-54,-158) scale(1,1)"><path fill="none" stroke="#000000" d="M 861 424 L 862 503" stroke-miterlimit="10" stroke-dasharray="3"/></g><g transform="translate(-54,-158) scale(1,1)"><path fill="none" stroke="#000000" d="M 857.6621883015425 492.89141999741184 L 862 503 L 866.0805494005072 492.78485846451355" stroke-miterlimit="10"/></g><g transform="translate(-54,-158) scale(1,1)"><path fill="#ffffff" stroke="none" d="M 520 448 L 608 448 L 618 458 L 618 523 L 520 523 L 520 448"/></g><g transform="translate(-54,-158) scale(1,1)"><path fill="none" stroke="#000000" d="M 520 448 L 608 448 L 618 458 L 618 523 L 520 523 L 520 448 L 520 448" stroke-miterlimit="10"/></g><g transform="translate(-54,-158) scale(1,1)"><path fill="none" stroke="#000000" d="M 608 448 L 608 458 L 618 458 L 608 448" stroke-miterlimit="10"/></g><g transform="translate(-54,-158) scale(1,1)"><g><path fill="none" stroke="none"/><text fill="#000000" stroke="none" font-family="Arial" font-size="13px" font-style="normal" font-weight="normal" text-decoration="none" x="525" y="466">Direct C calls;</text><text fill="#000000" stroke="none" font-family="Arial" font-size="13px" font-style="normal" font-weight="normal" text-decoration="none" x="525" y="479">Requesting</text><text fill="#000000" stroke="none" font-family="Arial" font-size="13px" font-style="normal" font-weight="normal" text-decoration="none" x="525" y="492">visual data;</text><text fill="#000000" stroke="none" font-family="Arial" font-size="13px" font-style="normal" font-weight="normal" text-decoration="none" x="525" y="505">LoD</text></g></g><g transform="translate(-54,-158) scale(1,1)"><path fill="none" stroke="#000000" d="M 590 421 L 582 447" stroke-miterlimit="10" stroke-dasharray="3"/></g><g transform="translate(-54,-158) scale(1,1)"><path fill="#ffffff" stroke="none" d="M 488 176 L 613 176 L 623 186 L 623 251 L 488 251 L 488 176"/></g><g transform="translate(-54,-158) scale(1,1)"><path fill="none" stroke="#000000" d="M 488 176 L 613 176 L 623 186 L 623 251 L 488 251 L 488 176 L 488 176" stroke-miterlimit="10"/></g><g transform="translate(-54,-158) scale(1,1)"><path fill="none" stroke="#000000" d="M 613 176 L 613 186 L 623 186 L 613 176" stroke-miterlimit="10"/></g><g transform="translate(-54,-158) scale(1,1)"><g><path fill="none" stroke="none"/><text fill="#000000" stroke="none" font-family="Arial" font-size="13px" font-style="normal" font-weight="normal" text-decoration="none" x="493" y="194">P/Invoke or custom</text><text fill="#000000" stroke="none" font-family="Arial" font-size="13px" font-style="normal" font-weight="normal" text-decoration="none" x="493" y="207">protocol impl;</text><text fill="#000000" stroke="none" font-family="Arial" font-size="13px" font-style="normal" font-weight="normal" text-decoration="none" x="493" y="220">Simulation control</text><text fill="#000000" stroke="none" font-family="Arial" font-size="13px" font-style="normal" font-weight="normal" text-decoration="none" x="493" y="233">and status monitoring</text></g></g><g transform="translate(-54,-158) scale(1,1)"><path fill="none" stroke="#000000" d="M 577 327 L 563 253" stroke-miterlimit="10" stroke-dasharray="3"/></g><g transform="translate(-54,-158) scale(1,1)"><path fill="#ffffff" stroke="none" d="M 384 200 L 437 200 L 447 210 L 447 239 L 384 239 L 384 200"/></g><g transform="translate(-54,-158) scale(1,1)"><path fill="none" stroke="#000000" d="M 384 200 L 437 200 L 447 210 L 447 239 L 384 239 L 384 200 L 384 200" stroke-miterlimit="10"/></g><g transform="translate(-54,-158) scale(1,1)"><path fill="none" stroke="#000000" d="M 437 200 L 437 210 L 447 210 L 437 200" stroke-miterlimit="10"/></g><g transform="translate(-54,-158) scale(1,1)"><g><path fill="none" stroke="none"/><text fill="#000000" stroke="none" font-family="Arial" font-size="13px" font-style="normal" font-weight="normal" text-decoration="none" x="389" y="218">TCP/IP</text></g></g><g transform="translate(-54,-158) scale(1,1)"><path fill="none" stroke="#000000" d="M 393 316 L 411 241" stroke-miterlimit="10" stroke-dasharray="3"/></g><g transform="translate(-54,-158) scale(1,1)"><path fill="#ffffff" stroke="none" d="M 64 448 L 197 448 L 207 458 L 207 511 L 64 511 L 64 448"/></g><g transform="translate(-54,-158) scale(1,1)"><path fill="none" stroke="#000000" d="M 64 448 L 197 448 L 207 458 L 207 511 L 64 511 L 64 448 L 64 448" stroke-miterlimit="10"/></g><g transform="translate(-54,-158) scale(1,1)"><path fill="none" stroke="#000000" d="M 197 448 L 197 458 L 207 458 L 197 448" stroke-miterlimit="10"/></g><g transform="translate(-54,-158) scale(1,1)"><g><path fill="none" stroke="none"/><text fill="#000000" stroke="none" font-family="Arial" font-size="13px" font-style="normal" font-weight="normal" text-decoration="none" x="69" y="466">For external worlds;</text><text fill="#000000" stroke="none" font-family="Arial" font-size="13px" font-style="normal" font-weight="normal" text-decoration="none" x="69" y="479">school, worlds in</text><text fill="#000000" stroke="none" font-family="Arial" font-size="13px" font-style="normal" font-weight="normal" text-decoration="none" x="69" y="492">BrainSim</text></g></g><g transform="translate(-54,-158) scale(1,1)"><path fill="none" stroke="#000000" d="M 239 468 L 209 472" stroke-miterlimit="10" stroke-dasharray="3"/></g><g transform="translate(-54,-158) scale(1,1)"><path fill="#ffffff" stroke="none" d="M 904 432 L 992 432 L 1002 442 L 1002 494 L 904 494 L 904 432"/></g><g transform="translate(-54,-158) scale(1,1)"><path fill="none" stroke="#000000" d="M 904 432 L 992 432 L 1002 442 L 1002 494 L 904 494 L 904 432 L 904 432" stroke-miterlimit="10"/></g><g transform="translate(-54,-158) scale(1,1)"><path fill="none" stroke="#000000" d="M 992 432 L 992 442 L 1002 442 L 992 432" stroke-miterlimit="10"/></g><g transform="translate(-54,-158) scale(1,1)"><g><path fill="none" stroke="none"/><text fill="#000000" stroke="none" font-family="Arial" font-size="13px" font-style="normal" font-weight="normal" text-decoration="none" x="909" y="450">C++/CLI; Start </text><text fill="#000000" stroke="none" font-family="Arial" font-size="13px" font-style="normal" font-weight="normal" text-decoration="none" x="909" y="463">or stop the</text><text fill="#000000" stroke="none" font-family="Arial" font-size="13px" font-style="normal" font-weight="normal" text-decoration="none" x="909" y="476">visualization</text></g></g><g transform="translate(-54,-158) scale(1,1)"><path fill="none" stroke="#000000" d="M 861 463 L 903 463" stroke-miterlimit="10" stroke-dasharray="3"/></g></g></svg>