<svg version="1.1" xmlns="http://www.w3.org/2000/svg" xmlns:xlink="http://www.w3.org/1999/xlink" width="1188" height="820"><defs/><g><g transform="translate(-30,-14) scale(1,1)"><path fill="none" stroke="#000000" d="M 171 287 L 224 147" stroke-miterlimit="10"/></g><g transform="translate(-30,-14) scale(1,1)"><path fill="#FFFFFF" stroke="none" d="M 224.67751438460283 168.98956512209043 L 224 147 L 208.93010440253076 163.02804562887744"/></g><g transform="translate(-30,-14) scale(1,1)"><path fill="none" stroke="#000000" d="M 224.67751438460283 168.98956512209043 L 224 147 L 208.93010440253076 163.02804562887744 L 224.67751438460283 168.98956512209043" stroke-miterlimit="10"/></g><g transform="translate(-30,-14) scale(1,1)"><path fill="none" stroke="#000000" d="M 352 279 L 257 147" stroke-miterlimit="10"/></g><g transform="translate(-30,-14) scale(1,1)"><path fill="#FFFFFF" stroke="none" d="M 275.70622349387577 158.5791710669275 L 257 147 L 262.03958710096714 168.41500786485418"/></g><g transform="translate(-30,-14) scale(1,1)"><path fill="none" stroke="#000000" d="M 275.70622349387577 158.5791710669275 L 257 147 L 262.03958710096714 168.41500786485418 L 275.70622349387577 158.5791710669275" stroke-miterlimit="10"/></g><g transform="translate(-30,-14) scale(1,1)"><path fill="none" stroke="#000000" d="M 761 169 L 823 223" stroke-miterlimit="10" stroke-dasharray="3"/></g><g transform="translate(-30,-14) scale(1,1)"><path fill="none" stroke="#000000" d="M 812.5717837178264 219.49967070517494 L 823 223 L 818.1012441319518 213.1510309704384" stroke-miterlimit="10"/></g><g transform="translate(-30,-14) scale(1,1)"><g><path fill="none" stroke="none"/><text fill="#000000" stroke="none" font-family="Arial" font-size="13px" font-style="normal" font-weight="normal" text-decoration="none" x="784" y="180">«include»</text></g></g><g transform="translate(-30,-14) scale(1,1)"><path fill="none" stroke="#000000" d="M 950 161 L 886 223" stroke-miterlimit="10" stroke-dasharray="3"/></g><g transform="translate(-30,-14) scale(1,1)"><path fill="none" stroke="#000000" d="M 890.3702795382991 212.90541448314374 L 886 223 L 896.2282041694486 218.95230442497555" stroke-miterlimit="10"/></g><g transform="translate(-30,-14) scale(1,1)"><g><path fill="none" stroke="none"/><text fill="#000000" stroke="none" font-family="Arial" font-size="13px" font-style="normal" font-weight="normal" text-decoration="none" x="911" y="220">«include»</text></g></g><g transform="translate(-30,-14) scale(1,1)"><rect fill="#C0C0C0" stroke="none" x="47" y="31" width="192" height="15" opacity="0.2"/></g><g transform="translate(-30,-14) scale(1,1)"><rect fill="#C0C0C0" stroke="none" x="47" y="45" width="480" height="450" opacity="0.2"/></g><g transform="translate(-30,-14) scale(1,1)"><rect fill="#ffffff" stroke="none" x="40" y="39" width="480" height="449"/></g><g transform="translate(-30,-14) scale(1,1)"><path fill="none" stroke="#000000" d="M 40 39 L 520 39 L 520 488 L 40 488 L 40 39 Z Z" stroke-miterlimit="10"/></g><g transform="translate(-30,-14) scale(1,1)"><rect fill="#ffffff" stroke="none" x="40" y="24" width="192" height="15"/></g><g transform="translate(-30,-14) scale(1,1)"><path fill="none" stroke="#000000" d="M 40 24 L 232 24 L 232 39 L 40 39 L 40 24 Z Z" stroke-miterlimit="10"/></g><g transform="translate(-30,-14) scale(1,1)"><rect fill="#ffffff" stroke="none" x="40" y="38" width="480" height="450"/></g><g transform="translate(-30,-14) scale(1,1)"><path fill="none" stroke="#000000" d="M 40 38 L 520 38 L 520 488 L 40 488 L 40 38 Z Z" stroke-miterlimit="10"/></g><g transform="translate(-30,-14) scale(1,1)"><g><path fill="none" stroke="none"/><text fill="#000000" stroke="none" font-family="Arial" font-size="13px" font-style="normal" font-weight="bold" text-decoration="none" x="265.911376953125" y="58.5">Core</text></g></g><g transform="translate(-30,-14) scale(1,1)"><path fill="#C0C0C0" stroke="none" d="M 159 124 C 159 107.98374079999999 196.6080768 95 243 95 C 289.3919232 95 327 107.98374079999999 327 124 C 327 140.0162592 289.3919232 153 243 153 C 196.6080768 153 159 140.0162592 159 124 Z" opacity="0.2"/></g><g transform="translate(-30,-14) scale(1,1)"><path fill="#ffffff" stroke="none" d="M 152 117 C 152 100.98374079999999 189.6080768 88 236 88 C 282.3919232 88 320 100.98374079999999 320 117 C 320 133.0162592 282.3919232 146 236 146 C 189.6080768 146 152 133.0162592 152 117 Z"/></g><g transform="translate(-30,-14) scale(1,1)"><path fill="none" stroke="#000000" d="M 152 117 C 152 100.98374079999999 189.6080768 88 236 88 C 282.3919232 88 320 100.98374079999999 320 117 C 320 133.0162592 282.3919232 146 236 146 C 189.6080768 146 152 133.0162592 152 117 Z" stroke-miterlimit="10"/></g><g transform="translate(-30,-14) scale(1,1)"><g><path fill="none" stroke="none"/><text fill="#000000" stroke="none" font-family="Arial" font-size="13px" font-style="normal" font-weight="bold" text-decoration="none" x="191.921875" y="124">Run Simulation</text></g></g><g transform="translate(-30,-14) scale(1,1)"><path fill="#C0C0C0" stroke="none" d="M 287 314.5 C 287 299.312168 328.1897984 287 379 287 C 429.8102016 287 471 299.312168 471 314.5 C 471 329.687832 429.8102016 342 379 342 C 328.1897984 342 287 329.687832 287 314.5 Z" opacity="0.2"/></g><g transform="translate(-30,-14) scale(1,1)"><path fill="#ffffff" stroke="none" d="M 280 307.5 C 280 292.312168 321.1897984 280 372 280 C 422.8102016 280 464 292.312168 464 307.5 C 464 322.687832 422.8102016 335 372 335 C 321.1897984 335 280 322.687832 280 307.5 Z"/></g><g transform="translate(-30,-14) scale(1,1)"><path fill="none" stroke="#000000" d="M 280 307.5 C 280 292.312168 321.1897984 280 372 280 C 422.8102016 280 464 292.312168 464 307.5 C 464 322.687832 422.8102016 335 372 335 C 321.1897984 335 280 322.687832 280 307.5 Z" stroke-miterlimit="10"/></g><g transform="translate(-30,-14) scale(1,1)"><g><path fill="none" stroke="none"/><text fill="#000000" stroke="none" font-family="Arial" font-size="13px" font-style="normal" font-weight="normal" text-decoration="none" x="345.98095703125" y="306">«school»</text></g></g><g transform="translate(-30,-14) scale(1,1)"><g><path fill="none" stroke="none"/><text fill="#000000" stroke="none" font-family="Arial" font-size="13px" font-style="normal" font-weight="bold" text-decoration="none" x="321.7900390625" y="321">Run in BrS World</text></g></g><g transform="translate(-30,-14) scale(1,1)"><path fill="#C0C0C0" stroke="none" d="M 63 319 C 63 305.7451648 110.010096 295 168 295 C 225.989904 295 273 305.7451648 273 319 C 273 332.2548352 225.989904 343 168 343 C 110.010096 343 63 332.2548352 63 319 Z" opacity="0.2"/></g><g transform="translate(-30,-14) scale(1,1)"><path fill="#ffffff" stroke="none" d="M 56 312 C 56 298.7451648 103.010096 288 161 288 C 218.989904 288 266 298.7451648 266 312 C 266 325.2548352 218.989904 336 161 336 C 103.010096 336 56 325.2548352 56 312 Z"/></g><g transform="translate(-30,-14) scale(1,1)"><path fill="none" stroke="#000000" d="M 56 312 C 56 298.7451648 103.010096 288 161 288 C 218.989904 288 266 298.7451648 266 312 C 266 325.2548352 218.989904 336 161 336 C 103.010096 336 56 325.2548352 56 312 Z" stroke-miterlimit="10"/></g><g transform="translate(-30,-14) scale(1,1)"><g><path fill="none" stroke="none"/><text fill="#000000" stroke="none" font-family="Arial" font-size="13px" font-style="normal" font-weight="bold" text-decoration="none" x="96.78076171875" y="319">Run in  "Native" World</text></g></g><g transform="translate(-30,-14) scale(1,1)"><path fill="none" stroke="#000000" d="M 171 287 L 224 147" stroke-miterlimit="10"/></g><g transform="translate(-30,-14) scale(1,1)"><path fill="#FFFFFF" stroke="none" d="M 224.67751438460283 168.98956512209043 L 224 147 L 208.93010440253076 163.02804562887744"/></g><g transform="translate(-30,-14) scale(1,1)"><path fill="none" stroke="#000000" d="M 224.67751438460283 168.98956512209043 L 224 147 L 208.93010440253076 163.02804562887744 L 224.67751438460283 168.98956512209043" stroke-miterlimit="10"/></g><g transform="translate(-30,-14) scale(1,1)"><path fill="none" stroke="#000000" d="M 352 279 L 257 147" stroke-miterlimit="10"/></g><g transform="translate(-30,-14) scale(1,1)"><path fill="#FFFFFF" stroke="none" d="M 275.70622349387577 158.5791710669275 L 257 147 L 262.03958710096714 168.41500786485418"/></g><g transform="translate(-30,-14) scale(1,1)"><path fill="none" stroke="#000000" d="M 275.70622349387577 158.5791710669275 L 257 147 L 262.03958710096714 168.41500786485418 L 275.70622349387577 158.5791710669275" stroke-miterlimit="10"/></g><g transform="translate(-30,-14) scale(1,1)"><rect fill="#C0C0C0" stroke="none" x="535" y="31" width="272" height="15" opacity="0.2"/></g><g transform="translate(-30,-14) scale(1,1)"><rect fill="#C0C0C0" stroke="none" x="535" y="45" width="680" height="786" opacity="0.2"/></g><g transform="translate(-30,-14) scale(1,1)"><rect fill="#ffffff" stroke="none" x="528" y="39" width="680" height="785"/></g><g transform="translate(-30,-14) scale(1,1)"><path fill="none" stroke="#000000" d="M 528 39 L 1208 39 L 1208 824 L 528 824 L 528 39 Z Z" stroke-miterlimit="10"/></g><g transform="translate(-30,-14) scale(1,1)"><rect fill="#ffffff" stroke="none" x="528" y="24" width="272" height="15"/></g><g transform="translate(-30,-14) scale(1,1)"><path fill="none" stroke="#000000" d="M 528 24 L 800 24 L 800 39 L 528 39 L 528 24 Z Z" stroke-miterlimit="10"/></g><g transform="translate(-30,-14) scale(1,1)"><rect fill="#ffffff" stroke="none" x="528" y="38" width="680" height="786"/></g><g transform="translate(-30,-14) scale(1,1)"><path fill="none" stroke="#000000" d="M 528 38 L 1208 38 L 1208 824 L 528 824 L 528 38 Z Z" stroke-miterlimit="10"/></g><g transform="translate(-30,-14) scale(1,1)"><g><path fill="none" stroke="none"/><text fill="#000000" stroke="none" font-family="Arial" font-size="13px" font-style="normal" font-weight="bold" text-decoration="none" x="861.5" y="58.5">UI</text></g></g><g transform="translate(-30,-14) scale(1,1)"><path fill="#C0C0C0" stroke="none" d="M 743 259 C 743 243.5360256 796.725824 231 863 231 C 929.274176 231 983 243.5360256 983 259 C 983 274.4639744 929.274176 287 863 287 C 796.725824 287 743 274.4639744 743 259 Z" opacity="0.2"/></g><g transform="translate(-30,-14) scale(1,1)"><path fill="#ffffff" stroke="none" d="M 736 252 C 736 236.5360256 789.725824 224 856 224 C 922.274176 224 976 236.5360256 976 252 C 976 267.4639744 922.274176 280 856 280 C 789.725824 280 736 267.4639744 736 252 Z"/></g><g transform="translate(-30,-14) scale(1,1)"><path fill="none" stroke="#000000" d="M 736 252 C 736 236.5360256 789.725824 224 856 224 C 922.274176 224 976 236.5360256 976 252 C 976 267.4639744 922.274176 280 856 280 C 789.725824 280 736 267.4639744 736 252 Z" stroke-miterlimit="10"/></g><g transform="translate(-30,-14) scale(1,1)"><g><path fill="none" stroke="none"/><text fill="#000000" stroke="none" font-family="Arial" font-size="13px" font-style="normal" font-weight="normal" text-decoration="none" x="823.115966796875" y="250.5">«technical»</text></g></g><g transform="translate(-30,-14) scale(1,1)"><g><path fill="none" stroke="none"/><text fill="#000000" stroke="none" font-family="Arial" font-size="13px" font-style="normal" font-weight="bold" text-decoration="none" x="786.642333984375" y="265.5">Communicate with Core</text></g></g><g transform="translate(-30,-14) scale(1,1)"><path fill="#C0C0C0" stroke="none" d="M 599 123 C 599 94.2811904 647.3532416 71 707 71 C 766.6467584 71 815 94.2811904 815 123 C 815 151.7188096 766.6467584 175 707 175 C 647.3532416 175 599 151.7188096 599 123 Z" opacity="0.2"/></g><g transform="translate(-30,-14) scale(1,1)"><path fill="#ffffff" stroke="none" d="M 592 116 C 592 87.2811904 640.3532416 64 700 64 C 759.6467584 64 808 87.2811904 808 116 C 808 144.7188096 759.6467584 168 700 168 C 640.3532416 168 592 144.7188096 592 116 Z"/></g><g transform="translate(-30,-14) scale(1,1)"><path fill="none" stroke="#000000" d="M 592 116 C 592 87.2811904 640.3532416 64 700 64 C 759.6467584 64 808 87.2811904 808 116 C 808 144.7188096 759.6467584 168 700 168 C 640.3532416 168 592 144.7188096 592 116 Z" stroke-miterlimit="10"/></g><g transform="translate(-30,-14) scale(1,1)"><g><path fill="none" stroke="none"/><text fill="#000000" stroke="none" font-family="Arial" font-size="13px" font-style="normal" font-weight="bold" text-decoration="none" x="653.030517578125" y="123">Create Blueprint</text></g></g><g transform="translate(-30,-14) scale(1,1)"><path fill="#C0C0C0" stroke="none" d="M 879 127 C 879 104.908608 932.725824 87 999 87 C 1065.274176 87 1119 104.908608 1119 127 C 1119 149.09139199999998 1065.274176 167 999 167 C 932.725824 167 879 149.09139199999998 879 127 Z" opacity="0.2"/></g><g transform="translate(-30,-14) scale(1,1)"><path fill="#ffffff" stroke="none" d="M 872 120 C 872 97.908608 925.725824 80 992 80 C 1058.274176 80 1112 97.908608 1112 120 C 1112 142.09139199999998 1058.274176 160 992 160 C 925.725824 160 872 142.09139199999998 872 120 Z"/></g><g transform="translate(-30,-14) scale(1,1)"><path fill="none" stroke="#000000" d="M 872 120 C 872 97.908608 925.725824 80 992 80 C 1058.274176 80 1112 97.908608 1112 120 C 1112 142.09139199999998 1058.274176 160 992 160 C 925.725824 160 872 142.09139199999998 872 120 Z" stroke-miterlimit="10"/></g><g transform="translate(-30,-14) scale(1,1)"><g><path fill="none" stroke="none"/><text fill="#000000" stroke="none" font-family="Arial" font-size="13px" font-style="normal" font-weight="bold" text-decoration="none" x="939.61279296875" y="127">View Visualization</text></g></g><g transform="translate(-30,-14) scale(1,1)"><path fill="none" stroke="#000000" d="M 761 169 L 823 223" stroke-miterlimit="10" stroke-dasharray="3"/></g><g transform="translate(-30,-14) scale(1,1)"><path fill="none" stroke="#000000" d="M 812.5717837178264 219.49967070517494 L 823 223 L 818.1012441319518 213.1510309704384" stroke-miterlimit="10"/></g><g transform="translate(-30,-14) scale(1,1)"><g><path fill="none" stroke="none"/><text fill="#000000" stroke="none" font-family="Arial" font-size="13px" font-style="normal" font-weight="normal" text-decoration="none" x="788" y="188">«include»</text></g></g><g transform="translate(-30,-14) scale(1,1)"><path fill="none" stroke="#000000" d="M 950 161 L 886 223" stroke-miterlimit="10" stroke-dasharray="3"/></g><g transform="translate(-30,-14) scale(1,1)"><path fill="none" stroke="#000000" d="M 890.3702795382991 212.90541448314374 L 886 223 L 896.2282041694486 218.95230442497555" stroke-miterlimit="10"/></g><g transform="translate(-30,-14) scale(1,1)"><g><path fill="none" stroke="none"/><text fill="#000000" stroke="none" font-family="Arial" font-size="13px" font-style="normal" font-weight="normal" text-decoration="none" x="925" y="203">«include»</text></g></g><g transform="translate(-30,-14) scale(1,1)"><path fill="#C0C0C0" stroke="none" d="M 583 491 C 583 457.862912 654.6344320000001 431 743 431 C 831.3655679999999 431 903 457.862912 903 491 C 903 524.137088 831.3655679999999 551 743 551 C 654.6344320000001 551 583 524.137088 583 491 Z" opacity="0.2"/></g><g transform="translate(-30,-14) scale(1,1)"><path fill="#ffffff" stroke="none" d="M 576 484 C 576 450.862912 647.6344320000001 424 736 424 C 824.3655679999999 424 896 450.862912 896 484 C 896 517.137088 824.3655679999999 544 736 544 C 647.6344320000001 544 576 517.137088 576 484 Z"/></g><g transform="translate(-30,-14) scale(1,1)"><path fill="none" stroke="#000000" d="M 576 484 C 576 450.862912 647.6344320000001 424 736 424 C 824.3655679999999 424 896 450.862912 896 484 C 896 517.137088 824.3655679999999 544 736 544 C 647.6344320000001 544 576 517.137088 576 484 Z" stroke-miterlimit="10"/></g><g transform="translate(-30,-14) scale(1,1)"><g><path fill="none" stroke="none"/><text fill="#000000" stroke="none" font-family="Arial" font-size="13px" font-style="normal" font-weight="normal" text-decoration="none" x="709.98095703125" y="482.5">«school»</text></g></g><g transform="translate(-30,-14) scale(1,1)"><g><path fill="none" stroke="none"/><text fill="#000000" stroke="none" font-family="Arial" font-size="13px" font-style="normal" font-weight="bold" text-decoration="none" x="702.760498046875" y="497.5">Use School</text></g></g><g transform="translate(-30,-14) scale(1,1)"><path fill="none" stroke="#000000" d="M 1015 537 L 897 515" stroke-miterlimit="10"/></g><g transform="translate(-30,-14) scale(1,1)"><path fill="#C0C0C0" stroke="none" d="M 1023 558.5 C 1023 532.266472 1055.0116368 511 1094.5 511 C 1133.9883632 511 1166 532.266472 1166 558.5 C 1166 584.733528 1133.9883632 606 1094.5 606 C 1055.0116368 606 1023 584.733528 1023 558.5 Z" opacity="0.2"/></g><g transform="translate(-30,-14) scale(1,1)"><path fill="#ffffff" stroke="none" d="M 1016 551.5 C 1016 525.266472 1048.0116368 504 1087.5 504 C 1126.9883632 504 1159 525.266472 1159 551.5 C 1159 577.733528 1126.9883632 599 1087.5 599 C 1048.0116368 599 1016 577.733528 1016 551.5 Z"/></g><g transform="translate(-30,-14) scale(1,1)"><path fill="none" stroke="#000000" d="M 1016 551.5 C 1016 525.266472 1048.0116368 504 1087.5 504 C 1126.9883632 504 1159 525.266472 1159 551.5 C 1159 577.733528 1126.9883632 599 1087.5 599 C 1048.0116368 599 1016 577.733528 1016 551.5 Z" stroke-miterlimit="10"/></g><g transform="translate(-30,-14) scale(1,1)"><g><path fill="none" stroke="none"/><text fill="#000000" stroke="none" font-family="Arial" font-size="13px" font-style="normal" font-weight="normal" text-decoration="none" x="1061.48095703125" y="550">«school»</text></g></g><g transform="translate(-30,-14) scale(1,1)"><g><path fill="none" stroke="none"/><text fill="#000000" stroke="none" font-family="Arial" font-size="13px" font-style="normal" font-weight="bold" text-decoration="none" x="1044.869140625" y="565">Manage Tasks</text></g></g><g transform="translate(-30,-14) scale(1,1)"><path fill="#C0C0C0" stroke="none" d="M 999 404 C 999 383.5654624 1038.6227952 367 1087.5 367 C 1136.3772048 367 1176 383.5654624 1176 404 C 1176 424.4345376 1136.3772048 441 1087.5 441 C 1038.6227952 441 999 424.4345376 999 404 Z" opacity="0.2"/></g><g transform="translate(-30,-14) scale(1,1)"><path fill="#ffffff" stroke="none" d="M 992 397 C 992 376.5654624 1031.6227952 360 1080.5 360 C 1129.3772048 360 1169 376.5654624 1169 397 C 1169 417.4345376 1129.3772048 434 1080.5 434 C 1031.6227952 434 992 417.4345376 992 397 Z"/></g><g transform="translate(-30,-14) scale(1,1)"><path fill="none" stroke="#000000" d="M 992 397 C 992 376.5654624 1031.6227952 360 1080.5 360 C 1129.3772048 360 1169 376.5654624 1169 397 C 1169 417.4345376 1129.3772048 434 1080.5 434 C 1031.6227952 434 992 417.4345376 992 397 Z" stroke-miterlimit="10"/></g><g transform="translate(-30,-14) scale(1,1)"><g><path fill="none" stroke="none"/><text fill="#000000" stroke="none" font-family="Arial" font-size="13px" font-style="normal" font-weight="bold" text-decoration="none" x="1027.392333984375" y="404">Control Simulation</text></g></g><g transform="translate(-30,-14) scale(1,1)"><path fill="none" stroke="#000000" d="M 897 443 L 991 420" stroke-miterlimit="10" stroke-dasharray="3"/></g><g transform="translate(-30,-14) scale(1,1)"><path fill="none" stroke="#000000" d="M 982.1290013917363 426.5042588887731 L 991 420 L 980.128051161356 418.3264622950447" stroke-miterlimit="10"/></g><g transform="translate(-30,-14) scale(1,1)"><g><path fill="none" stroke="none"/><text fill="#000000" stroke="none" font-family="Arial" font-size="13px" font-style="normal" font-weight="normal" text-decoration="none" x="904" y="412">«include»</text></g></g><g transform="translate(-30,-14) scale(1,1)"><path fill="none" stroke="#000000" d="M 1021 359 L 901 281" stroke-miterlimit="10" stroke-dasharray="3"/></g><g transform="translate(-30,-14) scale(1,1)"><path fill="none" stroke="#000000" d="M 911.8149679975672 283.00909611805827 L 901 281 L 907.2266917202606 290.0679826985299" stroke-miterlimit="10"/></g><g transform="translate(-30,-14) scale(1,1)"><g><path fill="none" stroke="none"/><text fill="#000000" stroke="none" font-family="Arial" font-size="13px" font-style="normal" font-weight="normal" text-decoration="none" x="917" y="336">«include»</text></g></g><g transform="translate(-30,-14) scale(1,1)"><path fill="none" stroke="#000000" d="M 611 423 L 432 336" stroke-miterlimit="10"/></g><g transform="translate(-30,-14) scale(1,1)"><path fill="#C0C0C0" stroke="none" d="M 367 207 C 367 189.3268864 398.340064 175 437 175 C 475.659936 175 507 189.3268864 507 207 C 507 224.6731136 475.659936 239 437 239 C 398.340064 239 367 224.6731136 367 207 Z" opacity="0.2"/></g><g transform="translate(-30,-14) scale(1,1)"><path fill="#ffffff" stroke="none" d="M 360 200 C 360 182.3268864 391.340064 168 430 168 C 468.659936 168 500 182.3268864 500 200 C 500 217.6731136 468.659936 232 430 232 C 391.340064 232 360 217.6731136 360 200 Z"/></g><g transform="translate(-30,-14) scale(1,1)"><path fill="none" stroke="#000000" d="M 360 200 C 360 182.3268864 391.340064 168 430 168 C 468.659936 168 500 182.3268864 500 200 C 500 217.6731136 468.659936 232 430 232 C 391.340064 232 360 217.6731136 360 200 Z" stroke-miterlimit="10"/></g><g transform="translate(-30,-14) scale(1,1)"><g><path fill="none" stroke="none"/><text fill="#000000" stroke="none" font-family="Arial" font-size="13px" font-style="normal" font-weight="normal" text-decoration="none" x="397.115966796875" y="198.5">«technical»</text></g></g><g transform="translate(-30,-14) scale(1,1)"><g><path fill="none" stroke="none"/><text fill="#000000" stroke="none" font-family="Arial" font-size="13px" font-style="normal" font-weight="bold" text-decoration="none" x="387.385009765625" y="213.5">Comm. with UI</text></g></g><g transform="translate(-30,-14) scale(1,1)"><path fill="none" stroke="#000000" d="M 359 170 L 306 147" stroke-miterlimit="10"/></g><g transform="translate(-30,-14) scale(1,1)"><path fill="none" stroke="#000000" d="M 501 209 L 735 237" stroke-miterlimit="10"/></g></g></svg>